<?xml version="1.0" encoding="UTF-8" standalone="no"?>
<!-- Created with Inkscape (http://www.inkscape.org/) -->

<svg
   width="1060.2"
   height="377.48999"
   version="1.1"
   viewBox="-10 -10 1098.3 391.05"
   id="svg30"
   xmlns="http://www.w3.org/2000/svg"
   xmlns:svg="http://www.w3.org/2000/svg">
  <defs
     id="defs20">
    <clipPath
       id="clipPath16">
      <path
         d="M 0,0 H 841.89 V 595.28 H 0 Z"
         clip-rule="evenodd"
         id="path1" />
    </clipPath>
    <clipPath
       id="clipPath34">
      <path
         d="m 365.43,166.3 c -104.52,0.388 -214.35,0.4762 -328.59,0.7758 117.09,89.447 160.89,203.04 140.12,233.77 3.4463,6.7904 14.145,30.85 22.656,48.571 52.907,-89.206 107.31,-187.06 165.81,-283.12"
         clip-rule="evenodd"
         id="path2" />
    </clipPath>
    <linearGradient
       id="linearGradient40"
       x1="36.84"
       x2="365.42999"
       y1="307.85999"
       y2="307.85999"
       gradientUnits="userSpaceOnUse">
      <stop
         stop-color="#231f20"
         offset="0"
         id="stop2" />
      <stop
         stop-color="#53ae4c"
         offset="1"
         id="stop3" />
    </linearGradient>
    <clipPath
       id="clipPath50">
      <path
         d="m 364.71,166.71 c -106.46,0.3843 -227.54,-0.2716 -334,0.1139 119.26,88.373 167.41,203.66 146.25,234.02 3.5104,6.7082 12.856,28.698 21.525,46.207 59.399,-83.167 101.92,-188.19 166.22,-280.35"
         clip-rule="evenodd"
         id="path3" />
    </clipPath>
    <linearGradient
       id="linearGradient56"
       x1="30.709999"
       x2="364.70999"
       y1="306.88"
       y2="306.88"
       gradientUnits="userSpaceOnUse">
      <stop
         stop-color="#051348"
         offset="0"
         id="stop4" />
      <stop
         stop-color="#24b34b"
         offset="1"
         id="stop5" />
    </linearGradient>
    <clipPath
       id="clipPath66">
      <path
         d="M 176.82,399.44 C 141.943,324.301 79.119,318.67 13.06,348.345 c 53.644,-42.911 37.941,-132.52 18.2,-180.25 78.978,61.788 161.72,168.52 145.56,231.34"
         clip-rule="evenodd"
         id="path5" />
    </clipPath>
    <linearGradient
       id="linearGradient74"
       x1="6.5300002"
       x2="143.99001"
       y1="280.04001"
       y2="216.59"
       gradientUnits="userSpaceOnUse">
      <stop
         stop-color="#384793"
         offset="0"
         id="stop6" />
      <stop
         stop-color="#384793"
         offset=".2224"
         id="stop7" />
      <stop
         stop-color="#504f4f"
         offset="1"
         id="stop8" />
    </linearGradient>
    <clipPath
       id="clipPath84">
      <path
         d="m 93.873,414.6 c 17.776,-0.6639 31.652,-15.367 30.993,-32.842 -0.659,-17.474 -15.604,-31.101 -33.38,-30.437 -17.776,0.6639 -31.653,15.367 -30.994,32.842 0.6593,17.474 15.604,31.101 33.38,30.437"
         clip-rule="evenodd"
         id="path8" />
    </clipPath>
    <linearGradient
       id="linearGradient92"
       x1="60.490002"
       x2="124.87"
       y1="384.17999"
       y2="381.75"
       gradientUnits="userSpaceOnUse">
      <stop
         stop-color="#283c8f"
         offset="0"
         id="stop9" />
      <stop
         stop-color="#283c8f"
         offset=".5283"
         id="stop10" />
      <stop
         stop-color="#504f4f"
         offset="1"
         id="stop11" />
    </linearGradient>
    <clipPath
       id="clipPath102">
      <path
         d="m 364.83,166.65 c -107.1,0.3838 -227.02,-0.2092 -334.12,0.1766 119.98,88.255 167.53,203.7 146.25,234.02 3.5314,6.7 12.803,28.722 21.524,46.207 59.754,-83.056 101.65,-188.38 166.35,-280.41"
         clip-rule="evenodd"
         id="path11" />
    </clipPath>
    <linearGradient
       id="linearGradient110"
       x1="30.709999"
       x2="364.82999"
       y1="306.85001"
       y2="306.85001"
       gradientUnits="userSpaceOnUse">
      <stop
         stop-color="#2a366e"
         offset="0"
         id="stop12" />
      <stop
         stop-color="#24b34b"
         offset=".84459"
         id="stop13" />
      <stop
         stop-color="#24b34b"
         offset="1"
         id="stop14" />
    </linearGradient>
    <clipPath
       id="clipPath120">
      <path
         d="M 176.87,399.44 C 137.915,325.907 91.632,319.544 13.55,346.948 c 53.4,-46.109 39.042,-130.6 17.705,-179.85 77.319,61.782 159.62,162.07 145.61,232.34"
         clip-rule="evenodd"
         id="path14" />
    </clipPath>
    <linearGradient
       id="linearGradient128"
       x1="-2.1099999"
       x2="127.1"
       y1="287.57999"
       y2="213.89999"
       gradientUnits="userSpaceOnUse">
      <stop
         stop-color="#374792"
         offset="0"
         id="stop15" />
      <stop
         stop-color="#374792"
         offset=".2224"
         id="stop16" />
      <stop
         stop-color="#504f4f"
         offset="1"
         id="stop17" />
    </linearGradient>
    <clipPath
       id="clipPath138">
      <path
         d="m 94.084,418.01 c 18.927,-0.707 33.702,-16.362 33,-34.968 -0.7019,-18.606 -16.614,-33.115 -35.541,-32.408 -18.927,0.707 -33.702,16.362 -33,34.968 0.7016,18.606 16.614,33.115 35.541,32.408"
         clip-rule="evenodd"
         id="path17" />
    </clipPath>
    <linearGradient
       id="linearGradient146"
       x1="58.540001"
       x2="127.08"
       y1="385.62"
       y2="383.03"
       gradientUnits="userSpaceOnUse">
      <stop
         stop-color="#283c8f"
         offset="0"
         id="stop18" />
      <stop
         stop-color="#283c8f"
         offset=".5283"
         id="stop19" />
      <stop
         stop-color="#504f4f"
         offset="1"
         id="stop20" />
    </linearGradient>
  </defs>
  <g
     transform="matrix(1.3333,0,0,-1.3333,-17.409,599.23)"
     id="g30">
    <g
       clip-path="url(#clipPath16)"
       id="g29">
      <text
         transform="matrix(1,0,0,-1,310.59,307.77)"
         fill="#39863b"
         font-family="Arial"
         font-size="143.79px"
         xml:space="preserve"
         id="text20"><tspan
           x="0 87.85508 207.63132 303.53857 399.44583"
           y="0"
           id="tspan20">FMABC</tspan></text>
      <text
         transform="matrix(0.9837,0,0,-1,320.57,250.05)"
         fill="#39863b"
         font-family="Arial"
         font-size="40.299px"
         font-weight="bold"
         xml:space="preserve"
         id="text22"><tspan
           x="0 29.095879 55.975311 85.07119 109.69388 138.78975 170.14238 181.3455 210.44138 239.53726 250.74037 277.61981 304.49924 333.59512 360.47455 371.67767 396.30035 425.39624 454.49213 465.69525"
           y="0"
           id="tspan21">CENTRO UNIVERSITÁRIO</tspan><tspan
           x="248.5247"
           y="45.021"
           id="tspan22"> </tspan></text>
      <g
         clip-path="url(#clipPath34)"
         id="g22">
        <path
           d="m 365.43,166.3 c -104.52,0.388 -214.35,0.4762 -328.59,0.7758 117.09,89.447 160.89,203.04 140.12,233.77 3.4463,6.7904 14.145,30.85 22.656,48.571 52.907,-89.206 107.31,-187.06 165.81,-283.12"
           fill="url(#linearGradient40)"
           fill-rule="evenodd"
           id="path22"
           style="fill:url(#linearGradient40)" />
      </g>
      <g
         clip-path="url(#clipPath50)"
         id="g23">
        <path
           d="m 364.71,166.71 c -106.46,0.3843 -227.54,-0.2716 -334,0.1139 119.26,88.373 167.41,203.66 146.25,234.02 3.5104,6.7082 12.856,28.698 21.525,46.207 59.399,-83.167 101.92,-188.19 166.22,-280.35"
           fill="url(#linearGradient56)"
           fill-rule="evenodd"
           id="path23"
           style="fill:url(#linearGradient56)" />
      </g>
      <g
         clip-path="url(#clipPath66)"
         id="g24">
        <path
           d="M 176.82,399.44 C 141.943,324.301 79.119,318.67 13.06,348.345 c 53.644,-42.911 37.941,-132.52 18.2,-180.25 78.978,61.788 161.72,168.52 145.56,231.34"
           fill="url(#linearGradient74)"
           fill-rule="evenodd"
           id="path24"
           style="fill:url(#linearGradient74)" />
      </g>
      <g
         clip-path="url(#clipPath84)"
         id="g25">
        <path
           d="m 93.873,414.6 c 17.776,-0.6639 31.652,-15.367 30.993,-32.842 -0.659,-17.474 -15.604,-31.101 -33.38,-30.437 -17.776,0.6639 -31.653,15.367 -30.994,32.842 0.6593,17.474 15.604,31.101 33.38,30.437"
           fill="url(#linearGradient92)"
           fill-rule="evenodd"
           id="path25"
           style="fill:url(#linearGradient92)" />
      </g>
      <g
         clip-path="url(#clipPath102)"
         id="g26">
        <path
           d="m 364.83,166.65 c -107.1,0.3838 -227.02,-0.2092 -334.12,0.1766 119.98,88.255 167.53,203.7 146.25,234.02 3.5314,6.7 12.803,28.722 21.524,46.207 59.754,-83.056 101.65,-188.38 166.35,-280.41"
           fill="url(#linearGradient110)"
           fill-rule="evenodd"
           id="path26"
           style="fill:url(#linearGradient110)" />
      </g>
      <g
         clip-path="url(#clipPath120)"
         id="g27">
        <path
           d="M 176.87,399.44 C 137.915,325.907 91.632,319.544 13.55,346.948 c 53.4,-46.109 39.042,-130.6 17.705,-179.85 77.319,61.782 159.62,162.07 145.61,232.34"
           fill="url(#linearGradient128)"
           fill-rule="evenodd"
           id="path27"
           style="fill:url(#linearGradient128)" />
      </g>
      <g
         clip-path="url(#clipPath138)"
         id="g28">
        <path
           d="m 94.084,418.01 c 18.927,-0.707 33.702,-16.362 33,-34.968 -0.7019,-18.606 -16.614,-33.115 -35.541,-32.408 -18.927,0.707 -33.702,16.362 -33,34.968 0.7016,18.606 16.614,33.115 35.541,32.408"
           fill="url(#linearGradient146)"
           fill-rule="evenodd"
           id="path28"
           style="fill:url(#linearGradient146)" />
      </g>
    </g>
  </g>
</svg>
