<?xml version="1.0" encoding="UTF-8" standalone="no"?>
<!-- Created with Inkscape (http://www.inkscape.org/) -->

<svg
   version="1.1"
   id="svg2"
   width="1060.1713"
   height="377.49265"
   viewBox="-10 -10 1098.2549 391.053"
   sodipodi:docname="logo_fmabc_white.svg"
   inkscape:version="1.4.2 (f4327f4, 2025-05-13)"
   xmlns:inkscape="http://www.inkscape.org/namespaces/inkscape"
   xmlns:sodipodi="http://sodipodi.sourceforge.net/DTD/sodipodi-0.dtd"
   xmlns="http://www.w3.org/2000/svg"
   xmlns:svg="http://www.w3.org/2000/svg">
  <sodipodi:namedview
     id="namedview1"
     pagecolor="#ffffff"
     bordercolor="#000000"
     borderopacity="0.25"
     inkscape:showpageshadow="2"
     inkscape:pageopacity="0.0"
     inkscape:pagecheckerboard="0"
     inkscape:deskcolor="#d1d1d1"
     showguides="true"
     inkscape:zoom="0.97391863"
     inkscape:cx="544.7067"
     inkscape:cy="202.78902"
     inkscape:window-width="1920"
     inkscape:window-height="991"
     inkscape:window-x="-9"
     inkscape:window-y="-9"
     inkscape:window-maximized="1"
     inkscape:current-layer="svg2" />
  <defs
     id="defs6">
    <clipPath
       clipPathUnits="userSpaceOnUse"
       id="clipPath16">
      <path
         d="M 0,0 H 841.8898 V 595.2756 H 0 Z"
         clip-rule="evenodd"
         id="path14" />
    </clipPath>
    <clipPath
       clipPathUnits="userSpaceOnUse"
       id="clipPath34">
      <path
         d="m 365.4303,166.3002 c -104.5176,0.388 -214.3542,0.4762 -328.5876,0.7758 117.0859,89.447 160.888,203.0355 140.1183,233.7724 3.4463,6.7904 14.1454,30.85 22.6562,48.5713 C 252.5244,360.214 306.93,262.3637 365.4303,166.3002"
         clip-rule="evenodd"
         id="path32" />
    </clipPath>
    <linearGradient
       x1="36.84"
       y1="307.85999"
       x2="365.42999"
       y2="307.85999"
       gradientUnits="userSpaceOnUse"
       spreadMethod="pad"
       id="linearGradient40">
      <stop
         style="stop-opacity:1;stop-color:#231f20"
         offset="0"
         id="stop36" />
      <stop
         style="stop-opacity:1;stop-color:#53ae4c"
         offset="1"
         id="stop38" />
    </linearGradient>
    <clipPath
       clipPathUnits="userSpaceOnUse"
       id="clipPath50">
      <path
         d="m 364.7095,166.7098 c -106.4622,0.3843 -227.5387,-0.2716 -334.0004,0.1139 119.2638,88.3732 167.4074,203.6557 146.2516,234.0241 3.5104,6.7082 12.856,28.6982 21.5249,46.2073 59.3988,-83.1668 101.9163,-188.1913 166.2239,-280.3453"
         clip-rule="evenodd"
         id="path48" />
    </clipPath>
    <linearGradient
       x1="30.709999"
       y1="306.88"
       x2="364.70999"
       y2="306.88"
       gradientUnits="userSpaceOnUse"
       spreadMethod="pad"
       id="linearGradient56">
      <stop
         style="stop-opacity:1;stop-color:#051348"
         offset="0"
         id="stop52" />
      <stop
         style="stop-opacity:1;stop-color:#24b34b"
         offset="1"
         id="stop54" />
    </linearGradient>
    <clipPath
       clipPathUnits="userSpaceOnUse"
       id="clipPath66">
      <path
         d="m 176.8198,399.4415 c -34.8772,-75.139 -97.7006,-80.7698 -163.7631,-51.095 53.6439,-42.9114 37.9408,-132.516 18.1998,-180.2492 78.9775,61.7882 161.7199,168.52 145.5633,231.3442"
         clip-rule="evenodd"
         id="path64" />
    </clipPath>
    <linearGradient
       x1="6.5300002"
       y1="280.04001"
       x2="143.99001"
       y2="216.59"
       gradientUnits="userSpaceOnUse"
       spreadMethod="pad"
       id="linearGradient74">
      <stop
         style="stop-opacity:1;stop-color:#384793"
         offset="0"
         id="stop68" />
      <stop
         style="stop-opacity:1;stop-color:#384793"
         offset="0.22239502"
         id="stop70" />
      <stop
         style="stop-opacity:1;stop-color:#504f4f"
         offset="1"
         id="stop72" />
    </linearGradient>
    <clipPath
       clipPathUnits="userSpaceOnUse"
       id="clipPath84">
      <path
         d="m 93.873,414.6041 c 17.7763,-0.6639 31.6525,-15.3672 30.9934,-32.8417 -0.659,-17.4741 -15.6041,-31.1011 -33.3802,-30.4373 -17.7763,0.6639 -31.6528,15.3672 -30.9937,32.8417 0.6593,17.4741 15.6041,31.1011 33.3805,30.4373"
         clip-rule="evenodd"
         id="path82" />
    </clipPath>
    <linearGradient
       x1="60.490002"
       y1="384.17999"
       x2="124.87"
       y2="381.75"
       gradientUnits="userSpaceOnUse"
       spreadMethod="pad"
       id="linearGradient92">
      <stop
         style="stop-opacity:1;stop-color:#283c8f"
         offset="0"
         id="stop86" />
      <stop
         style="stop-opacity:1;stop-color:#283c8f"
         offset="0.52830189"
         id="stop88" />
      <stop
         style="stop-opacity:1;stop-color:#504f4f"
         offset="1"
         id="stop90" />
    </linearGradient>
    <clipPath
       clipPathUnits="userSpaceOnUse"
       id="clipPath102">
      <path
         d="m 364.8319,166.6468 c -107.0997,0.3838 -227.0236,-0.2092 -334.1228,0.1766 119.9778,88.255 167.5347,203.6974 146.2522,234.0247 3.5314,6.7 12.8026,28.7215 21.5243,46.2073 59.7543,-83.0563 101.6538,-188.3773 166.3463,-280.4086"
         clip-rule="evenodd"
         id="path100" />
    </clipPath>
    <linearGradient
       x1="30.709999"
       y1="306.85001"
       x2="364.82999"
       y2="306.85001"
       gradientUnits="userSpaceOnUse"
       spreadMethod="pad"
       id="linearGradient110">
      <stop
         style="stop-opacity:1;stop-color:#2a366e"
         offset="0"
         id="stop104" />
      <stop
         style="stop-opacity:1;stop-color:#24b34b"
         offset="0.84459459"
         id="stop106" />
      <stop
         style="stop-opacity:1;stop-color:#24b34b"
         offset="1"
         id="stop108" />
    </linearGradient>
    <clipPath
       clipPathUnits="userSpaceOnUse"
       id="clipPath120">
      <path
         d="M 176.8706,399.4396 C 137.9154,325.9069 91.6325,319.5431 13.5516,346.9473 66.9521,300.8387 52.594,216.3481 31.2568,167.0967 108.576,228.8792 190.876,329.1676 176.8706,399.4396"
         clip-rule="evenodd"
         id="path118" />
    </clipPath>
    <linearGradient
       x1="-2.1099999"
       y1="287.57999"
       x2="127.1"
       y2="213.89999"
       gradientUnits="userSpaceOnUse"
       spreadMethod="pad"
       id="linearGradient128">
      <stop
         style="stop-opacity:1;stop-color:#374792"
         offset="0"
         id="stop122" />
      <stop
         style="stop-opacity:1;stop-color:#374792"
         offset="0.22239502"
         id="stop124" />
      <stop
         style="stop-opacity:1;stop-color:#504f4f"
         offset="1"
         id="stop126" />
    </linearGradient>
    <clipPath
       clipPathUnits="userSpaceOnUse"
       id="clipPath138">
      <path
         d="m 94.0839,418.0147 c 18.9272,-0.707 33.7019,-16.3621 33.0001,-34.9676 -0.7019,-18.6055 -16.6142,-33.1146 -35.5414,-32.408 -18.9272,0.707 -33.7017,16.3622 -32.9998,34.9677 0.7016,18.6055 16.6141,33.1149 35.5411,32.4079"
         clip-rule="evenodd"
         id="path136" />
    </clipPath>
    <linearGradient
       x1="58.540001"
       y1="385.62"
       x2="127.08"
       y2="383.03"
       gradientUnits="userSpaceOnUse"
       spreadMethod="pad"
       id="linearGradient146">
      <stop
         style="stop-opacity:1;stop-color:#283c8f"
         offset="0"
         id="stop140" />
      <stop
         style="stop-opacity:1;stop-color:#283c8f"
         offset="0.52830189"
         id="stop142" />
      <stop
         style="stop-opacity:1;stop-color:#504f4f"
         offset="1"
         id="stop144" />
    </linearGradient>
  </defs>
  <g
     id="g8"
     transform="matrix(1.3333333,0,0,-1.3333333,-17.408933,599.22625)"
     style="fill:#ffffff">
    <g
       id="g10"
       style="fill:#ffffff">
      <g
         id="g12"
         clip-path="url(#clipPath16)"
         style="fill:#ffffff">
        <text
           xml:space="preserve"
           transform="matrix(1,0,0,-1,310.5865,307.7705)"
           style="font-variant:normal;font-weight:normal;font-size:143.789px;font-family:Arial;-inkscape-font-specification:ArialMT;writing-mode:lr-tb;fill:#ffffff;fill-opacity:1;fill-rule:nonzero;stroke:none"
           id="text20"><tspan
             x="0 87.85508 207.63132 303.53857 399.44583"
             y="0"
             id="tspan18"
             style="fill:#ffffff">FMABC</tspan></text>
        <text
           xml:space="preserve"
           transform="matrix(0.9837,0,0,-1,320.567,250.0503)"
           style="font-variant:normal;font-weight:bold;font-size:40.299px;font-family:Arial;-inkscape-font-specification:Arial-BoldMT;writing-mode:lr-tb;fill:#ffffff;fill-opacity:1;fill-rule:nonzero;stroke:none"
           id="text26"><tspan
             x="0 29.095879 55.975311 85.07119 109.69388 138.78975 170.14238 181.3455 210.44138 239.53726 250.74037 277.61981 304.49924 333.59512 360.47455 371.67767 396.30035 425.39624 454.49213 465.69525"
             y="0"
             id="tspan22"
             style="fill:#ffffff">CENTRO UNIVERSITÁRIO</tspan><tspan
             x="248.5247"
             y="45.021"
             id="tspan24"
             style="fill:#ffffff"> </tspan></text>
        <g
           id="g28"
           style="fill:#ffffff">
          <g
             id="g30"
             clip-path="url(#clipPath34)"
             style="fill:#ffffff">
            <path
               d="m 365.4303,166.3002 c -104.5176,0.388 -214.3542,0.4762 -328.5876,0.7758 117.0859,89.447 160.888,203.0355 140.1183,233.7724 3.4463,6.7904 14.1454,30.85 22.6562,48.5713 C 252.5244,360.214 306.93,262.3637 365.4303,166.3002"
               style="fill:#ffffff;fill-rule:evenodd;stroke:none"
               id="path42" />
          </g>
        </g>
        <g
           id="g44"
           style="fill:#ffffff">
          <g
             id="g46"
             clip-path="url(#clipPath50)"
             style="fill:#ffffff">
            <path
               d="m 364.7095,166.7098 c -106.4622,0.3843 -227.5387,-0.2716 -334.0004,0.1139 119.2638,88.3732 167.4074,203.6557 146.2516,234.0241 3.5104,6.7082 12.856,28.6982 21.5249,46.2073 59.3988,-83.1668 101.9163,-188.1913 166.2239,-280.3453"
               style="fill:#ffffff;fill-rule:evenodd;stroke:none"
               id="path58" />
          </g>
        </g>
        <g
           id="g60"
           style="fill:#ffffff">
          <g
             id="g62"
             clip-path="url(#clipPath66)"
             style="fill:#ffffff">
            <path
               d="m 176.8198,399.4415 c -34.8772,-75.139 -97.7006,-80.7698 -163.7631,-51.095 53.6439,-42.9114 37.9408,-132.516 18.1998,-180.2492 78.9775,61.7882 161.7199,168.52 145.5633,231.3442"
               style="fill:#ffffff;fill-rule:evenodd;stroke:none"
               id="path76" />
          </g>
        </g>
        <g
           id="g78"
           style="fill:#ffffff">
          <g
             id="g80"
             clip-path="url(#clipPath84)"
             style="fill:#ffffff">
            <path
               d="m 93.873,414.6041 c 17.7763,-0.6639 31.6525,-15.3672 30.9934,-32.8417 -0.659,-17.4741 -15.6041,-31.1011 -33.3802,-30.4373 -17.7763,0.6639 -31.6528,15.3672 -30.9937,32.8417 0.6593,17.4741 15.6041,31.1011 33.3805,30.4373"
               style="fill:#ffffff;fill-rule:evenodd;stroke:none"
               id="path94" />
          </g>
        </g>
        <g
           id="g96"
           style="fill:#ffffff">
          <g
             id="g98"
             clip-path="url(#clipPath102)"
             style="fill:#ffffff">
            <path
               d="m 364.8319,166.6468 c -107.0997,0.3838 -227.0236,-0.2092 -334.1228,0.1766 119.9778,88.255 167.5347,203.6974 146.2522,234.0247 3.5314,6.7 12.8026,28.7215 21.5243,46.2073 59.7543,-83.0563 101.6538,-188.3773 166.3463,-280.4086"
               style="fill:#ffffff;fill-rule:evenodd;stroke:none"
               id="path112" />
          </g>
        </g>
        <g
           id="g114"
           style="fill:#ffffff">
          <g
             id="g116"
             clip-path="url(#clipPath120)"
             style="fill:#ffffff">
            <path
               d="M 176.8706,399.4396 C 137.9154,325.9069 91.6325,319.5431 13.5516,346.9473 66.9521,300.8387 52.594,216.3481 31.2568,167.0967 108.576,228.8792 190.876,329.1676 176.8706,399.4396"
               style="fill:#ffffff;fill-rule:evenodd;stroke:none"
               id="path130" />
          </g>
        </g>
        <g
           id="g132"
           style="fill:#ffffff">
          <g
             id="g134"
             clip-path="url(#clipPath138)"
             style="fill:#ffffff">
            <path
               d="m 94.0839,418.0147 c 18.9272,-0.707 33.7019,-16.3621 33.0001,-34.9676 -0.7019,-18.6055 -16.6142,-33.1146 -35.5414,-32.408 -18.9272,0.707 -33.7017,16.3622 -32.9998,34.9677 0.7016,18.6055 16.6141,33.1149 35.5411,32.4079"
               style="fill:#ffffff;fill-rule:evenodd;stroke:none"
               id="path148" />
          </g>
        </g>
      </g>
    </g>
  </g>
</svg>
